# xmcd CD database file
#
# Track frame offsets:
#	150
#	18675
#	40900
#	62062
#	81575
#
# Disc length: 1317 seconds
#
# Revision: 0
# Processed by: cddbd v1.5PL3 Copyright (c) Steve Scherf et al.
# Submitted via: CDex 1.51
#
DISCID=40052305
DTITLE=伊藤智恵理 - CHIERI
DYEAR=1988
DGENRE=Pop
TTITLE0=パラダイス・ウォーカー
TTITLE1=トキメキがいたくて
TTITLE2=雨に消えたあいつ
TTITLE3=夢かもしれない
TTITLE4=魔法をかけて
EXTD=YEAR: 1988
EXTT0=
EXTT1=
EXTT2=
EXTT3=
EXTT4=
PLAYORDER=
